<?xml version="1.0" standalone="no"?>
<!DOCTYPE svg PUBLIC "-//W3C//DTD SVG 20010904//EN"
 "http://www.w3.org/TR/2001/REC-SVG-20010904/DTD/svg10.dtd">
<svg version="1.0" xmlns="http://www.w3.org/2000/svg"
 width="224.000000pt" height="170.000000pt" viewBox="0 0 224.000000 170.000000"
 preserveAspectRatio="xMidYMid meet">

<g transform="translate(0.000000,170.000000) scale(0.100000,-0.100000)"
fill="#000000" stroke="none">
<path d="M1270 1424 c-215 -150 -478 -377 -654 -563 -231 -245 -516 -585 -516
-616 0 -20 26 6 74 72 124 176 512 597 704 766 172 151 422 348 422 331 0 -8
-151 -202 -233 -299 -37 -44 -83 -99 -103 -123 -20 -24 -34 -46 -31 -49 9 -9
68 32 112 76 21 23 43 41 48 41 5 0 7 -16 4 -35 -3 -19 -2 -37 2 -39 4 -3 69
55 145 128 75 74 133 137 128 140 -5 3 -63 -47 -130 -110 -107 -101 -122 -112
-122 -90 0 13 -4 28 -10 31 -20 13 -9 38 53 113 103 125 209 271 205 281 -1 6
-46 -19 -98 -55z"/>
<path d="M1930 1339 c-80 -33 -155 -64 -167 -69 -28 -12 -30 1 -3 25 25 23 26
45 2 45 -46 0 -342 -132 -342 -152 0 -10 31 -3 70 17 14 7 40 16 59 20 l34 7
-21 -29 c-11 -16 -59 -69 -106 -118 -78 -83 -85 -88 -86 -62 0 32 -6 33 -33
10 -15 -13 -21 -15 -24 -5 -8 20 -22 14 -38 -17 -18 -37 -5 -48 29 -25 23 15
27 15 41 0 9 -9 20 -16 24 -16 10 0 151 147 205 212 22 28 36 54 32 63 -6 17
13 29 92 56 l56 19 -29 -30 c-22 -23 -26 -33 -17 -42 9 -9 21 -9 50 -1 69 21
352 138 352 146 0 16 -41 3 -180 -54z"/>
<path d="M1206 1028 c-8 -12 -13 -25 -10 -30 7 -11 44 25 44 42 0 17 -18 11
-34 -12z"/>
<path d="M1062 825 c-99 -13 -145 -32 -52 -21 30 3 109 11 175 16 157 14 169
18 60 18 -49 0 -132 -6 -183 -13z"/>
</g>
</svg>
